<?xml version="1.0" encoding="UTF-8" standalone="no"?>
<!DOCTYPE svg PUBLIC "-//W3C//DTD SVG 1.0//EN" "http://www.w3.org/TR/2001/REC-SVG-20010904/DTD/svg10.dtd">
<!-- Generated by Microsoft Visio 11.0, SVG Export, v1.0 vtable-structure.svg Page-1 -->
<svg xmlns="http://www.w3.org/2000/svg" xmlns:xlink="http://www.w3.org/1999/xlink" xmlns:ev="http://www.w3.org/2001/xml-events"
		xmlns:v="http://schemas.microsoft.com/visio/2003/SVGExtensions/" width="16.0354in" height="22.8858in"
		viewBox="0 0 1154.55 1647.78" xml:space="preserve" color-interpolation-filters="sRGB" class="st7">
	<v:documentProperties v:langID="2057" v:metric="true" v:viewMarkup="false">
		<v:userDefs>
			<v:ud v:nameU="msvNoAutoConnect" v:val="VT0(1):26"/>
		</v:userDefs>
	</v:documentProperties>

	<style type="text/css">
	<![CDATA[
		.st1 {fill:#ffffff;stroke:#000000;stroke-linecap:round;stroke-linejoin:round;stroke-width:0.75}
		.st2 {fill:#000000;font-family:Calibri;font-size:1.00001em}
		.st3 {marker-end:url(#mrkr4-160);marker-start:url(#mrkr10-158);stroke:#000000;stroke-linecap:round;stroke-linejoin:round;stroke-width:0.75}
		.st4 {fill:#000000;fill-opacity:1;stroke:#000000;stroke-opacity:1;stroke-width:0.22935779816514}
		.st5 {fill:#000000;font-family:Courier New;font-size:0.833336em}
		.st6 {font-size:1em}
		.st7 {fill:none;fill-rule:evenodd;font-size:12px;overflow:visible;stroke-linecap:square;stroke-miterlimit:3}
	]]>
	</style>

	<defs id="Markers">
		<g id="lend10">
			<path
					d="M 0 0.75 C -0.414214 0.75 -0.75 0.414214 -0.75 0 -0.75 -0.414214 -0.414214 -0.75 0 -0.75 0.414214 -0.75 0.75 -0.414214 0.75 0 0.75 0.414214 0.414214 0.75 0 0.75 Z "
					style="stroke:none"/>
		</g>
		<marker id="mrkr10-158" class="st4" v:arrowType="10" v:arrowSize="2" v:setback="2.79" refX="2.79" orient="auto"
				markerUnits="strokeWidth" overflow="visible">
			<use xlink:href="#lend10" transform="scale(4.36) "/>
		</marker>
		<g id="lend4">
			<path d="M 2 1 L 0 0 L 2 -1 L 2 1 " style="stroke:none"/>
		</g>
		<marker id="mrkr4-160" class="st4" v:arrowType="4" v:arrowSize="2" v:setback="8.24" refX="-8.24" orient="auto"
				markerUnits="strokeWidth" overflow="visible">
			<use xlink:href="#lend4" transform="scale(-4.36,-4.36) "/>
		</marker>
	</defs>
	<g v:mID="0" v:index="1" v:groupContext="foregroundPage">
		<title>Page-1</title>
		<v:pageProperties v:drawingScale="0.0393701" v:pageScale="0.0393701" v:drawingUnits="24" v:shadowOffsetX="8.50394"
				v:shadowOffsetY="-8.50394"/>
		<g id="shape65-1" v:mID="65" v:groupContext="shape" transform="translate(224.787,-1242.43)">
			<title>Sheet.65</title>
			<desc>ThreadContext</desc>
			<v:textBlock v:margins="rect(4,4,4,4)" v:tabSpace="42.5197" v:verticalAlign="0"/>
			<v:textRect cx="82.2047" cy="1610.93" width="164.41" height="73.7008"/>
			<rect x="0" y="1574.08" width="164.409" height="73.7008" class="st1"/>
			<text x="4" y="1588.88" class="st2" v:langID="2057"><v:paragraph/><v:tabList/>ThreadContext</text>		</g>
		<g id="shape66-4" v:mID="66" v:groupContext="shape" transform="translate(230.457,-1270.77)">
			<title>Sheet.66</title>
			<desc>numVTables : unsigned</desc>
			<v:textBlock v:margins="rect(4,4,4,4)" v:tabSpace="42.5197"/>
			<v:textRect cx="70.8661" cy="1642.11" width="141.74" height="11.3386"/>
			<rect x="0" y="1636.44" width="141.732" height="11.3386" class="st1"/>
			<text x="4" y="1645.71" class="st2" v:langID="2057"><v:paragraph/><v:tabList/>numVTables : unsigned</text>		</g>
		<g id="shape67-7" v:mID="67" v:groupContext="shape" transform="translate(366.52,-1270.77)">
			<title>Sheet.67</title>
			<desc>2</desc>
			<v:textBlock v:margins="rect(4,4,4,4)" v:tabSpace="42.5197"/>
			<v:textRect cx="8.50394" cy="1642.11" width="17.01" height="11.3386"/>
			<rect x="0" y="1636.44" width="17.0079" height="11.3386" class="st1"/>
			<text x="5.46" y="1645.71" class="st2" v:langID="2057"><v:paragraph v:horizAlign="1"/><v:tabList/>2</text>		</g>
		<g id="shape68-10" v:mID="68" v:groupContext="shape" transform="translate(230.457,-1259.43)">
			<title>Sheet.68</title>
			<desc>vtables</desc>
			<v:textBlock v:margins="rect(4,4,4,4)" v:tabSpace="42.5197"/>
			<v:textRect cx="70.8661" cy="1642.11" width="141.74" height="11.3386"/>
			<rect x="0" y="1636.44" width="141.732" height="11.3386" class="st1"/>
			<text x="4" y="1645.71" class="st2" v:langID="2057"><v:paragraph/><v:tabList/>vtables</text>		</g>
		<g id="shape69-13" v:mID="69" v:groupContext="shape" transform="translate(366.52,-1259.43)">
			<title>Sheet.69</title>
			<rect x="0" y="1636.44" width="17.0079" height="11.3386" class="st1"/>
		</g>
		<g id="shape70-15" v:mID="70" v:groupContext="shape" transform="translate(230.457,-1282.11)">
			<title>Sheet.70</title>
			<desc>...</desc>
			<v:textBlock v:margins="rect(4,4,4,4)" v:tabSpace="42.5197"/>
			<v:textRect cx="70.8661" cy="1642.11" width="141.74" height="11.3386"/>
			<rect x="0" y="1636.44" width="141.732" height="11.3386" class="st1"/>
			<text x="4" y="1645.71" class="st2" v:langID="2057"><v:paragraph/><v:tabList/>...</text>		</g>
		<g id="shape71-18" v:mID="71" v:groupContext="shape" transform="translate(366.52,-1282.11)">
			<title>Sheet.71</title>
			<rect x="0" y="1636.44" width="17.0079" height="11.3386" class="st1"/>
		</g>
		<g id="shape72-20" v:mID="72" v:groupContext="shape" transform="translate(230.457,-1248.09)">
			<title>Sheet.72</title>
			<desc>...</desc>
			<v:textBlock v:margins="rect(4,4,4,4)" v:tabSpace="42.5197"/>
			<v:textRect cx="70.8661" cy="1642.11" width="141.74" height="11.3386"/>
			<rect x="0" y="1636.44" width="141.732" height="11.3386" class="st1"/>
			<text x="4" y="1645.71" class="st2" v:langID="2057"><v:paragraph/><v:tabList/>...</text>		</g>
		<g id="shape73-23" v:mID="73" v:groupContext="shape" transform="translate(366.52,-1248.09)">
			<title>Sheet.73</title>
			<rect x="0" y="1636.44" width="17.0079" height="11.3386" class="st1"/>
		</g>
		<g id="shape9-25" v:mID="9" v:groupContext="shape" transform="translate(440.22,-1032.66)">
			<title>Sheet.9</title>
			<desc>InputPortVTable [0]</desc>
			<v:textBlock v:margins="rect(4,4,4,4)" v:tabSpace="42.5197" v:verticalAlign="0"/>
			<v:textRect cx="82.2047" cy="1610.93" width="164.41" height="73.7008"/>
			<rect x="0" y="1574.08" width="164.409" height="73.7008" class="st1"/>
			<text x="4" y="1588.88" class="st2" v:langID="2057"><v:paragraph/><v:tabList/>InputPortVTable [0]</text>		</g>
		<g id="shape1-28" v:mID="1" v:groupContext="shape" transform="translate(445.89,-1072.35)">
			<title>Sheet.1</title>
			<desc>receiveHandler</desc>
			<v:textBlock v:margins="rect(4,4,4,4)" v:tabSpace="42.5197"/>
			<v:textRect cx="70.8661" cy="1642.11" width="141.74" height="11.3386"/>
			<rect x="0" y="1636.44" width="141.732" height="11.3386" class="st1"/>
			<text x="4" y="1645.71" class="st2" v:langID="2057"><v:paragraph/><v:tabList/>receiveHandler</text>		</g>
		<g id="shape2-31" v:mID="2" v:groupContext="shape" transform="translate(581.953,-1072.35)">
			<title>Sheet.2</title>
			<rect x="0" y="1636.44" width="17.0079" height="11.3386" class="st1"/>
		</g>
		<g id="shape3-33" v:mID="3" v:groupContext="shape" transform="translate(445.89,-1061.01)">
			<title>Sheet.3</title>
			<desc>messageSize : unsigned</desc>
			<v:textBlock v:margins="rect(4,4,4,4)" v:tabSpace="42.5197"/>
			<v:textRect cx="70.8661" cy="1642.11" width="141.74" height="11.3386"/>
			<rect x="0" y="1636.44" width="141.732" height="11.3386" class="st1"/>
			<text x="4" y="1645.71" class="st2" v:langID="2057"><v:paragraph/><v:tabList/>messageSize : unsigned</text>		</g>
		<g id="shape4-36" v:mID="4" v:groupContext="shape" transform="translate(581.953,-1061.01)">
			<title>Sheet.4</title>
			<rect x="0" y="1636.44" width="17.0079" height="11.3386" class="st1"/>
		</g>
		<g id="shape5-38" v:mID="5" v:groupContext="shape" transform="translate(445.89,-1049.67)">
			<title>Sheet.5</title>
			<desc>propertiesSize : unsigned</desc>
			<v:textBlock v:margins="rect(4,4,4,4)" v:tabSpace="42.5197"/>
			<v:textRect cx="70.8661" cy="1642.11" width="141.74" height="11.3386"/>
			<rect x="0" y="1636.44" width="141.732" height="11.3386" class="st1"/>
			<text x="4" y="1645.71" class="st2" v:langID="2057"><v:paragraph/><v:tabList/>propertiesSize : unsigned</text>		</g>
		<g id="shape6-41" v:mID="6" v:groupContext="shape" transform="translate(581.953,-1049.67)">
			<title>Sheet.6</title>
			<rect x="0" y="1636.44" width="17.0079" height="11.3386" class="st1"/>
		</g>
		<g id="shape7-43" v:mID="7" v:groupContext="shape" transform="translate(445.89,-1038.33)">
			<title>Sheet.7</title>
			<desc>stateSize : unsigned</desc>
			<v:textBlock v:margins="rect(4,4,4,4)" v:tabSpace="42.5197"/>
			<v:textRect cx="70.8661" cy="1642.11" width="141.74" height="11.3386"/>
			<rect x="0" y="1636.44" width="141.732" height="11.3386" class="st1"/>
			<text x="4" y="1645.71" class="st2" v:langID="2057"><v:paragraph/><v:tabList/>stateSize : unsigned</text>		</g>
		<g id="shape8-46" v:mID="8" v:groupContext="shape" transform="translate(581.953,-1038.33)">
			<title>Sheet.8</title>
			<rect x="0" y="1636.44" width="17.0079" height="11.3386" class="st1"/>
		</g>
		<g id="shape10-48" v:mID="10" v:groupContext="shape" transform="translate(440.22,-868.252)">
			<title>Sheet.10</title>
			<desc>OutputPortVTable [0]</desc>
			<v:textBlock v:margins="rect(4,4,4,4)" v:tabSpace="42.5197" v:verticalAlign="0"/>
			<v:textRect cx="82.2047" cy="1610.93" width="164.41" height="73.7008"/>
			<rect x="0" y="1574.08" width="164.409" height="73.7008" class="st1"/>
			<text x="4" y="1588.88" class="st2" v:langID="2057"><v:paragraph/><v:tabList/>OutputPortVTable [0]</text>		</g>
		<g id="shape11-51" v:mID="11" v:groupContext="shape" transform="translate(445.89,-907.937)">
			<title>Sheet.11</title>
			<desc>receiveHandler</desc>
			<v:textBlock v:margins="rect(4,4,4,4)" v:tabSpace="42.5197"/>
			<v:textRect cx="70.8661" cy="1642.11" width="141.74" height="11.3386"/>
			<rect x="0" y="1636.44" width="141.732" height="11.3386" class="st1"/>
			<text x="4" y="1645.71" class="st2" v:langID="2057"><v:paragraph/><v:tabList/>receiveHandler</text>		</g>
		<g id="shape12-54" v:mID="12" v:groupContext="shape" transform="translate(581.953,-907.937)">
			<title>Sheet.12</title>
			<rect x="0" y="1636.44" width="17.0079" height="11.3386" class="st1"/>
		</g>
		<g id="shape13-56" v:mID="13" v:groupContext="shape" transform="translate(445.89,-896.598)">
			<title>Sheet.13</title>
			<desc>messageSize : unsigned</desc>
			<v:textBlock v:margins="rect(4,4,4,4)" v:tabSpace="42.5197"/>
			<v:textRect cx="70.8661" cy="1642.11" width="141.74" height="11.3386"/>
			<rect x="0" y="1636.44" width="141.732" height="11.3386" class="st1"/>
			<text x="4" y="1645.71" class="st2" v:langID="2057"><v:paragraph/><v:tabList/>messageSize : unsigned</text>		</g>
		<g id="shape14-59" v:mID="14" v:groupContext="shape" transform="translate(581.953,-896.598)">
			<title>Sheet.14</title>
			<rect x="0" y="1636.44" width="17.0079" height="11.3386" class="st1"/>
		</g>
		<g id="shape15-61" v:mID="15" v:groupContext="shape" transform="translate(445.89,-885.26)">
			<title>Sheet.15</title>
			<desc>propertiesSize : unsigned</desc>
			<v:textBlock v:margins="rect(4,4,4,4)" v:tabSpace="42.5197"/>
			<v:textRect cx="70.8661" cy="1642.11" width="141.74" height="11.3386"/>
			<rect x="0" y="1636.44" width="141.732" height="11.3386" class="st1"/>
			<text x="4" y="1645.71" class="st2" v:langID="2057"><v:paragraph/><v:tabList/>propertiesSize : unsigned</text>		</g>
		<g id="shape16-64" v:mID="16" v:groupContext="shape" transform="translate(581.953,-885.26)">
			<title>Sheet.16</title>
			<rect x="0" y="1636.44" width="17.0079" height="11.3386" class="st1"/>
		</g>
		<g id="shape17-66" v:mID="17" v:groupContext="shape" transform="translate(445.89,-873.921)">
			<title>Sheet.17</title>
			<desc>stateSize : unsigned</desc>
			<v:textBlock v:margins="rect(4,4,4,4)" v:tabSpace="42.5197"/>
			<v:textRect cx="70.8661" cy="1642.11" width="141.74" height="11.3386"/>
			<rect x="0" y="1636.44" width="141.732" height="11.3386" class="st1"/>
			<text x="4" y="1645.71" class="st2" v:langID="2057"><v:paragraph/><v:tabList/>stateSize : unsigned</text>		</g>
		<g id="shape18-69" v:mID="18" v:groupContext="shape" transform="translate(581.953,-873.921)">
			<title>Sheet.18</title>
			<rect x="0" y="1636.44" width="17.0079" height="11.3386" class="st1"/>
		</g>
		<g id="shape19-71" v:mID="19" v:groupContext="shape" transform="translate(440.22,-1219.75)">
			<title>Sheet.19</title>
			<desc>DeviceTypeVTable [0]</desc>
			<v:textBlock v:margins="rect(4,4,4,4)" v:tabSpace="42.5197" v:verticalAlign="0"/>
			<v:textRect cx="82.2047" cy="1599.59" width="164.41" height="96.378"/>
			<rect x="0" y="1551.4" width="164.409" height="96.378" class="st1"/>
			<text x="4" y="1566.2" class="st2" v:langID="2057"><v:paragraph/><v:tabList/>DeviceTypeVTable [0]</text>		</g>
		<g id="shape20-74" v:mID="20" v:groupContext="shape" transform="translate(445.89,-1282.11)">
			<title>Sheet.20</title>
			<desc>readyToSendHandler</desc>
			<v:textBlock v:margins="rect(4,4,4,4)" v:tabSpace="42.5197"/>
			<v:textRect cx="70.8661" cy="1642.11" width="141.74" height="11.3386"/>
			<rect x="0" y="1636.44" width="141.732" height="11.3386" class="st1"/>
			<text x="4" y="1645.71" class="st2" v:langID="2057"><v:paragraph/><v:tabList/>readyToSendHandler</text>		</g>
		<g id="shape21-77" v:mID="21" v:groupContext="shape" transform="translate(581.953,-1282.11)">
			<title>Sheet.21</title>
			<rect x="0" y="1636.44" width="17.0079" height="11.3386" class="st1"/>
		</g>
		<g id="shape22-79" v:mID="22" v:groupContext="shape" transform="translate(445.89,-1270.77)">
			<title>Sheet.22</title>
			<desc>numOutputs : unsigned</desc>
			<v:textBlock v:margins="rect(4,4,4,4)" v:tabSpace="42.5197"/>
			<v:textRect cx="70.8661" cy="1642.11" width="141.74" height="11.3386"/>
			<rect x="0" y="1636.44" width="141.732" height="11.3386" class="st1"/>
			<text x="4" y="1645.71" class="st2" v:langID="2057"><v:paragraph/><v:tabList/>numOutputs : unsigned</text>		</g>
		<g id="shape23-82" v:mID="23" v:groupContext="shape" transform="translate(581.953,-1270.77)">
			<title>Sheet.23</title>
			<desc>2</desc>
			<v:textBlock v:margins="rect(4,4,4,4)" v:tabSpace="42.5197"/>
			<v:textRect cx="8.50394" cy="1642.11" width="17.01" height="11.3386"/>
			<rect x="0" y="1636.44" width="17.0079" height="11.3386" class="st1"/>
			<text x="5.46" y="1645.71" class="st2" v:langID="2057"><v:paragraph v:horizAlign="1"/><v:tabList/>2</text>		</g>
		<g id="shape24-85" v:mID="24" v:groupContext="shape" transform="translate(445.89,-1259.43)">
			<title>Sheet.24</title>
			<desc>outputPorts</desc>
			<v:textBlock v:margins="rect(4,4,4,4)" v:tabSpace="42.5197"/>
			<v:textRect cx="70.8661" cy="1642.11" width="141.74" height="11.3386"/>
			<rect x="0" y="1636.44" width="141.732" height="11.3386" class="st1"/>
			<text x="4" y="1645.71" class="st2" v:langID="2057"><v:paragraph/><v:tabList/>outputPorts</text>		</g>
		<g id="shape25-88" v:mID="25" v:groupContext="shape" transform="translate(581.953,-1259.43)">
			<title>Sheet.25</title>
			<rect x="0" y="1636.44" width="17.0079" height="11.3386" class="st1"/>
		</g>
		<g id="shape26-90" v:mID="26" v:groupContext="shape" transform="translate(445.89,-1248.09)">
			<title>Sheet.26</title>
			<desc>numInputs : unsigned</desc>
			<v:textBlock v:margins="rect(4,4,4,4)" v:tabSpace="42.5197"/>
			<v:textRect cx="70.8661" cy="1642.11" width="141.74" height="11.3386"/>
			<rect x="0" y="1636.44" width="141.732" height="11.3386" class="st1"/>
			<text x="4" y="1645.71" class="st2" v:langID="2057"><v:paragraph/><v:tabList/>numInputs : unsigned</text>		</g>
		<g id="shape27-93" v:mID="27" v:groupContext="shape" transform="translate(581.953,-1248.09)">
			<title>Sheet.27</title>
			<desc>2</desc>
			<v:textBlock v:margins="rect(4,4,4,4)" v:tabSpace="42.5197"/>
			<v:textRect cx="8.50394" cy="1642.11" width="17.01" height="11.3386"/>
			<rect x="0" y="1636.44" width="17.0079" height="11.3386" class="st1"/>
			<text x="5.46" y="1645.71" class="st2" v:langID="2057"><v:paragraph v:horizAlign="1"/><v:tabList/>2</text>		</g>
		<g id="shape28-96" v:mID="28" v:groupContext="shape" transform="translate(445.89,-1236.76)">
			<title>Sheet.28</title>
			<desc>inputPorts</desc>
			<v:textBlock v:margins="rect(4,4,4,4)" v:tabSpace="42.5197"/>
			<v:textRect cx="70.8661" cy="1642.11" width="141.74" height="11.3386"/>
			<rect x="0" y="1636.44" width="141.732" height="11.3386" class="st1"/>
			<text x="4" y="1645.71" class="st2" v:langID="2057"><v:paragraph/><v:tabList/>inputPorts</text>		</g>
		<g id="shape29-99" v:mID="29" v:groupContext="shape" transform="translate(581.953,-1236.76)">
			<title>Sheet.29</title>
			<rect x="0" y="1636.44" width="17.0079" height="11.3386" class="st1"/>
		</g>
		<g id="shape30-101" v:mID="30" v:groupContext="shape" transform="translate(445.89,-1225.42)">
			<title>Sheet.30</title>
			<desc>computeHandler</desc>
			<v:textBlock v:margins="rect(4,4,4,4)" v:tabSpace="42.5197"/>
			<v:textRect cx="70.8661" cy="1642.11" width="141.74" height="11.3386"/>
			<rect x="0" y="1636.44" width="141.732" height="11.3386" class="st1"/>
			<text x="4" y="1645.71" class="st2" v:langID="2057"><v:paragraph/><v:tabList/>computeHandler</text>		</g>
		<g id="shape31-104" v:mID="31" v:groupContext="shape" transform="translate(581.953,-1225.42)">
			<title>Sheet.31</title>
			<rect x="0" y="1636.44" width="17.0079" height="11.3386" class="st1"/>
		</g>
		<g id="shape32-106" v:mID="32" v:groupContext="shape" transform="translate(440.22,-958.961)">
			<title>Sheet.32</title>
			<desc>InputPortVTable [1]</desc>
			<v:textBlock v:margins="rect(4,4,4,4)" v:tabSpace="42.5197" v:verticalAlign="0"/>
			<v:textRect cx="82.2047" cy="1610.93" width="164.41" height="73.7008"/>
			<rect x="0" y="1574.08" width="164.409" height="73.7008" class="st1"/>
			<text x="4" y="1588.88" class="st2" v:langID="2057"><v:paragraph/><v:tabList/>InputPortVTable [1]</text>		</g>
		<g id="shape33-109" v:mID="33" v:groupContext="shape" transform="translate(445.89,-998.646)">
			<title>Sheet.33</title>
			<desc>receiveHandler</desc>
			<v:textBlock v:margins="rect(4,4,4,4)" v:tabSpace="42.5197"/>
			<v:textRect cx="70.8661" cy="1642.11" width="141.74" height="11.3386"/>
			<rect x="0" y="1636.44" width="141.732" height="11.3386" class="st1"/>
			<text x="4" y="1645.71" class="st2" v:langID="2057"><v:paragraph/><v:tabList/>receiveHandler</text>		</g>
		<g id="shape34-112" v:mID="34" v:groupContext="shape" transform="translate(581.953,-998.646)">
			<title>Sheet.34</title>
			<rect x="0" y="1636.44" width="17.0079" height="11.3386" class="st1"/>
		</g>
		<g id="shape35-114" v:mID="35" v:groupContext="shape" transform="translate(445.89,-987.307)">
			<title>Sheet.35</title>
			<desc>messageSize : unsigned</desc>
			<v:textBlock v:margins="rect(4,4,4,4)" v:tabSpace="42.5197"/>
			<v:textRect cx="70.8661" cy="1642.11" width="141.74" height="11.3386"/>
			<rect x="0" y="1636.44" width="141.732" height="11.3386" class="st1"/>
			<text x="4" y="1645.71" class="st2" v:langID="2057"><v:paragraph/><v:tabList/>messageSize : unsigned</text>		</g>
		<g id="shape36-117" v:mID="36" v:groupContext="shape" transform="translate(581.953,-987.307)">
			<title>Sheet.36</title>
			<rect x="0" y="1636.44" width="17.0079" height="11.3386" class="st1"/>
		</g>
		<g id="shape37-119" v:mID="37" v:groupContext="shape" transform="translate(445.89,-975.969)">
			<title>Sheet.37</title>
			<desc>propertiesSize : unsigned</desc>
			<v:textBlock v:margins="rect(4,4,4,4)" v:tabSpace="42.5197"/>
			<v:textRect cx="70.8661" cy="1642.11" width="141.74" height="11.3386"/>
			<rect x="0" y="1636.44" width="141.732" height="11.3386" class="st1"/>
			<text x="4" y="1645.71" class="st2" v:langID="2057"><v:paragraph/><v:tabList/>propertiesSize : unsigned</text>		</g>
		<g id="shape38-122" v:mID="38" v:groupContext="shape" transform="translate(581.953,-975.969)">
			<title>Sheet.38</title>
			<rect x="0" y="1636.44" width="17.0079" height="11.3386" class="st1"/>
		</g>
		<g id="shape39-124" v:mID="39" v:groupContext="shape" transform="translate(445.89,-964.63)">
			<title>Sheet.39</title>
			<desc>stateSize : unsigned</desc>
			<v:textBlock v:margins="rect(4,4,4,4)" v:tabSpace="42.5197"/>
			<v:textRect cx="70.8661" cy="1642.11" width="141.74" height="11.3386"/>
			<rect x="0" y="1636.44" width="141.732" height="11.3386" class="st1"/>
			<text x="4" y="1645.71" class="st2" v:langID="2057"><v:paragraph/><v:tabList/>stateSize : unsigned</text>		</g>
		<g id="shape40-127" v:mID="40" v:groupContext="shape" transform="translate(581.953,-964.63)">
			<title>Sheet.40</title>
			<rect x="0" y="1636.44" width="17.0079" height="11.3386" class="st1"/>
		</g>
		<g id="shape41-129" v:mID="41" v:groupContext="shape" transform="translate(440.22,-794.551)">
			<title>Sheet.41</title>
			<desc>OutputPortVTable [1]</desc>
			<v:textBlock v:margins="rect(4,4,4,4)" v:tabSpace="42.5197" v:verticalAlign="0"/>
			<v:textRect cx="82.2047" cy="1610.93" width="164.41" height="73.7008"/>
			<rect x="0" y="1574.08" width="164.409" height="73.7008" class="st1"/>
			<text x="4" y="1588.88" class="st2" v:langID="2057"><v:paragraph/><v:tabList/>OutputPortVTable [1]</text>		</g>
		<g id="shape42-132" v:mID="42" v:groupContext="shape" transform="translate(445.89,-834.236)">
			<title>Sheet.42</title>
			<desc>receiveHandler</desc>
			<v:textBlock v:margins="rect(4,4,4,4)" v:tabSpace="42.5197"/>
			<v:textRect cx="70.8661" cy="1642.11" width="141.74" height="11.3386"/>
			<rect x="0" y="1636.44" width="141.732" height="11.3386" class="st1"/>
			<text x="4" y="1645.71" class="st2" v:langID="2057"><v:paragraph/><v:tabList/>receiveHandler</text>		</g>
		<g id="shape43-135" v:mID="43" v:groupContext="shape" transform="translate(581.953,-834.236)">
			<title>Sheet.43</title>
			<rect x="0" y="1636.44" width="17.0079" height="11.3386" class="st1"/>
		</g>
		<g id="shape44-137" v:mID="44" v:groupContext="shape" transform="translate(445.89,-822.898)">
			<title>Sheet.44</title>
			<desc>messageSize : unsigned</desc>
			<v:textBlock v:margins="rect(4,4,4,4)" v:tabSpace="42.5197"/>
			<v:textRect cx="70.8661" cy="1642.11" width="141.74" height="11.3386"/>
			<rect x="0" y="1636.44" width="141.732" height="11.3386" class="st1"/>
			<text x="4" y="1645.71" class="st2" v:langID="2057"><v:paragraph/><v:tabList/>messageSize : unsigned</text>		</g>
		<g id="shape45-140" v:mID="45" v:groupContext="shape" transform="translate(581.953,-822.898)">
			<title>Sheet.45</title>
			<rect x="0" y="1636.44" width="17.0079" height="11.3386" class="st1"/>
		</g>
		<g id="shape46-142" v:mID="46" v:groupContext="shape" transform="translate(445.89,-811.559)">
			<title>Sheet.46</title>
			<desc>propertiesSize : unsigned</desc>
			<v:textBlock v:margins="rect(4,4,4,4)" v:tabSpace="42.5197"/>
			<v:textRect cx="70.8661" cy="1642.11" width="141.74" height="11.3386"/>
			<rect x="0" y="1636.44" width="141.732" height="11.3386" class="st1"/>
			<text x="4" y="1645.71" class="st2" v:langID="2057"><v:paragraph/><v:tabList/>propertiesSize : unsigned</text>		</g>
		<g id="shape47-145" v:mID="47" v:groupContext="shape" transform="translate(581.953,-811.559)">
			<title>Sheet.47</title>
			<rect x="0" y="1636.44" width="17.0079" height="11.3386" class="st1"/>
		</g>
		<g id="shape48-147" v:mID="48" v:groupContext="shape" transform="translate(445.89,-800.22)">
			<title>Sheet.48</title>
			<desc>stateSize : unsigned</desc>
			<v:textBlock v:margins="rect(4,4,4,4)" v:tabSpace="42.5197"/>
			<v:textRect cx="70.8661" cy="1642.11" width="141.74" height="11.3386"/>
			<rect x="0" y="1636.44" width="141.732" height="11.3386" class="st1"/>
			<text x="4" y="1645.71" class="st2" v:langID="2057"><v:paragraph/><v:tabList/>stateSize : unsigned</text>		</g>
		<g id="shape49-150" v:mID="49" v:groupContext="shape" transform="translate(581.953,-800.22)">
			<title>Sheet.49</title>
			<rect x="0" y="1636.44" width="17.0079" height="11.3386" class="st1"/>
		</g>
		<g id="shape50-152" v:mID="50" v:groupContext="shape" transform="translate(2236.65,310.476) rotate(87.4886)">
			<title>Sheet.50</title>
			<path d="M1.71 1646.57 L2 1646.36 A232.51 138.33 7.78 0 1 317.66 1644.75 L317.98 1644.92" class="st3"/>
		</g>
		<g id="shape51-161" v:mID="51" v:groupContext="shape" transform="translate(2229.37,234.634) rotate(84.0531)">
			<title>Sheet.51</title>
			<path d="M1.67 1646.52 L1.96 1646.31 A98.5121 63.4073 9.33 0 1 131.06 1644.64 L131.38 1644.81" class="st3"/>
		</g>
		<g id="shape52-168" v:mID="52" v:groupContext="shape" transform="translate(655.654,-1248.09)">
			<title>Sheet.52</title>
			<desc>uint32_t (*ready_to_send_handler_t)( const void *graphProps, ...</desc>
			<v:textBlock v:margins="rect(4,4,4,4)" v:tabSpace="42.5197" v:verticalAlign="0"/>
			<v:textRect cx="113.386" cy="1613.76" width="226.78" height="68.0315"/>
			<rect x="0" y="1579.75" width="226.772" height="68.0315" class="st1"/>
			<text x="4" y="1592.75" class="st5" v:langID="2057"><v:paragraph/><v:tabList/>uint32_t (*ready_to_send_handler_t)(<v:newlineChar/><tspan
						x="4" dy="1.2em" class="st6">    </tspan>const void *graphProps,<v:newlineChar/><tspan x="4" dy="1.2em"
						class="st6">    </tspan>const void *devProps,<v:newlineChar/><tspan x="4" dy="1.2em" class="st6">    </tspan>void *devState<v:newlineChar/><tspan
						x="4" dy="1.2em" class="st6">)</tspan>;</text>		</g>
		<g id="shape53-175" v:mID="53" v:groupContext="shape" transform="translate(655.654,-987.307)">
			<title>Sheet.53</title>
			<desc>void (*receive_handler_t)( const void *graphProps, const void...</desc>
			<v:textBlock v:margins="rect(4,4,4,4)" v:tabSpace="42.5197" v:verticalAlign="0"/>
			<v:textRect cx="113.386" cy="1593.92" width="226.78" height="107.717"/>
			<rect x="0" y="1540.06" width="226.772" height="107.717" class="st1"/>
			<text x="4" y="1553.06" class="st5" v:langID="2057"><v:paragraph/><v:tabList/>void (*receive_handler_t)(<v:newlineChar/><tspan
						x="4" dy="1.2em" class="st6">    </tspan>const void *graphProps,<v:newlineChar/><tspan x="4" dy="1.2em"
						class="st6">    </tspan>const void *devProps,<v:newlineChar/><tspan x="4" dy="1.2em" class="st6">    </tspan>void *devState,<v:newlineChar/><tspan
						x="4" dy="1.2em" class="st6">    </tspan>const void *edgeProps,<v:newlineChar/><tspan x="4" dy="1.2em"
						class="st6">    </tspan>void *edgeState,<v:newlineChar/><tspan x="4" dy="1.2em" class="st6">    </tspan>const void *message<v:newlineChar/><tspan
						x="4" dy="1.2em" class="st6">)</tspan>;</text>		</g>
		<g id="shape54-185" v:mID="54" v:groupContext="shape" transform="translate(655.654,-936.283)">
			<title>Sheet.54</title>
			<desc>void (*receive_handler_t)( ... );</desc>
			<v:textBlock v:margins="rect(4,4,4,4)" v:tabSpace="42.5197" v:verticalAlign="0"/>
			<v:textRect cx="113.386" cy="1625.1" width="226.78" height="45.3543"/>
			<rect x="0" y="1602.43" width="226.772" height="45.3543" class="st1"/>
			<text x="4" y="1615.43" class="st5" v:langID="2057"><v:paragraph/><v:tabList/>void (*receive_handler_t)(<v:newlineChar/><tspan
						x="4" dy="1.2em" class="st6">    </tspan>...<v:newlineChar/><tspan x="4" dy="1.2em" class="st6">)</tspan>;</text>		</g>
		<g id="shape55-190" v:mID="55" v:groupContext="shape" transform="translate(655.654,-851.244)">
			<title>Sheet.55</title>
			<desc>bool (*send_handler_t)( const void *graphProps, const void *d...</desc>
			<v:textBlock v:margins="rect(4,4,4,4)" v:tabSpace="42.5197" v:verticalAlign="0"/>
			<v:textRect cx="113.386" cy="1608.09" width="226.78" height="79.3701"/>
			<rect x="0" y="1568.41" width="226.772" height="79.3701" class="st1"/>
			<text x="4" y="1581.41" class="st5" v:langID="2057"><v:paragraph/><v:tabList/>bool (*send_handler_t)(<v:newlineChar/><tspan
						x="4" dy="1.2em" class="st6">    </tspan>const void *graphProps,<v:newlineChar/><tspan x="4" dy="1.2em"
						class="st6">    </tspan>const void *devProps,<v:newlineChar/><tspan x="4" dy="1.2em" class="st6">    </tspan>void *devState,<v:newlineChar/><tspan
						x="4" dy="1.2em" class="st6">    </tspan>void *message<v:newlineChar/><tspan x="4" dy="1.2em" class="st6">)</tspan>;</text>		</g>
		<g id="shape56-198" v:mID="56" v:groupContext="shape" transform="translate(655.654,-800.22)">
			<title>Sheet.56</title>
			<desc>bool (*send_handler_t)( ... );</desc>
			<v:textBlock v:margins="rect(4,4,4,4)" v:tabSpace="42.5197" v:verticalAlign="0"/>
			<v:textRect cx="113.386" cy="1625.1" width="226.78" height="45.3543"/>
			<rect x="0" y="1602.43" width="226.772" height="45.3543" class="st1"/>
			<text x="4" y="1615.43" class="st5" v:langID="2057"><v:paragraph/><v:tabList/>bool (*send_handler_t)(<v:newlineChar/><tspan
						x="4" dy="1.2em" class="st6">  </tspan>...<v:newlineChar/><tspan x="4" dy="1.2em" class="st6">)</tspan>;</text>		</g>
		<g id="shape57-203" v:mID="57" v:groupContext="shape" transform="translate(655.654,-1174.39)">
			<title>Sheet.57</title>
			<desc>void (*compute_handler_t)( const void *graphProps, const void...</desc>
			<v:textBlock v:margins="rect(4,4,4,4)" v:tabSpace="42.5197" v:verticalAlign="0"/>
			<v:textRect cx="113.386" cy="1613.76" width="226.78" height="68.0315"/>
			<rect x="0" y="1579.75" width="226.772" height="68.0315" class="st1"/>
			<text x="4" y="1592.75" class="st5" v:langID="2057"><v:paragraph/><v:tabList/>void (*compute_handler_t)(<v:newlineChar/><tspan
						x="4" dy="1.2em" class="st6">    </tspan>const void *graphProps,<v:newlineChar/><tspan x="4" dy="1.2em"
						class="st6">    </tspan>const void *devProps,<v:newlineChar/><tspan x="4" dy="1.2em" class="st6">    </tspan>void *devState<v:newlineChar/><tspan
						x="4" dy="1.2em" class="st6">)</tspan>;</text>		</g>
		<g id="shape58-210" v:mID="58" v:groupContext="shape" transform="translate(-66.556,-1151.13) rotate(-23.4986)">
			<title>Sheet.58</title>
			<path d="M1.78 1646.68 L2.09 1646.49 A51.0394 28.1255 6.66 0 1 65.1 1645.16 L65.43 1645.3" class="st3"/>
		</g>
		<g id="shape59-217" v:mID="59" v:groupContext="shape" transform="translate(308.124,-1206.72) rotate(-9.86581)">
			<title>Sheet.59</title>
			<path d="M2.03 1647.28 L2.38 1647.19 A47.3137 10.7794 2.01 0 1 59.73 1646.64 L60.09 1646.71" class="st3"/>
		</g>
		<g id="shape60-224" v:mID="60" v:groupContext="shape" transform="translate(174.521,-1024.66) rotate(-14.6209)">
			<title>Sheet.60</title>
			<path d="M2.03 1647.28 L2.38 1647.2 A48.173 10.7796 1.97 0 1 60.94 1646.66 L61.29 1646.72" class="st3"/>
		</g>
		<g id="shape61-231" v:mID="61" v:groupContext="shape" transform="translate(1131.79,-912.858) rotate(19.179)">
			<title>Sheet.61</title>
			<path d="M2.04 1647.29 L2.39 1647.21 A49.3509 10.7799 1.91 0 1 62.58 1646.68 L62.94 1646.74" class="st3"/>
		</g>
		<g id="shape62-238" v:mID="62" v:groupContext="shape" transform="translate(174.521,-860.247) rotate(-14.6209)">
			<title>Sheet.62</title>
			<path d="M2.03 1647.28 L2.38 1647.2 A48.173 10.7796 1.97 0 1 60.94 1646.66 L61.29 1646.72" class="st3"/>
		</g>
		<g id="shape63-245" v:mID="63" v:groupContext="shape" transform="translate(447.71,-833.711) rotate(-4.96974)">
			<title>Sheet.63</title>
			<path d="M2.03 1647.27 L2.38 1647.18 A46.7906 10.7792 2.03 0 1 59 1646.63 L59.36 1646.7" class="st3"/>
		</g>
		<g id="shape64-252" v:mID="64" v:groupContext="shape" transform="translate(-640.517,-914.957) rotate(-38.047)">
			<title>Sheet.64</title>
			<path d="M1.85 1646.8 L2.16 1646.63 A59.3423 28.1702 5.14 0 1 76.68 1645.45 L77.02 1645.57" class="st3"/>
		</g>
		<g id="shape75-259" v:mID="75" v:groupContext="shape" transform="translate(440.22,-1123.37)">
			<title>Sheet.75</title>
			<desc>DeviceTypeVTable [1]</desc>
			<v:textBlock v:margins="rect(4,4,4,4)" v:tabSpace="42.5197" v:verticalAlign="0"/>
			<v:textRect cx="82.2047" cy="1599.59" width="164.41" height="96.378"/>
			<rect x="0" y="1551.4" width="164.409" height="96.378" class="st1"/>
			<text x="4" y="1566.2" class="st2" v:langID="2057"><v:paragraph/><v:tabList/>DeviceTypeVTable [1]</text>		</g>
		<g id="shape76-262" v:mID="76" v:groupContext="shape" transform="translate(445.89,-1185.73)">
			<title>Sheet.76</title>
			<desc>readyToSendHandler</desc>
			<v:textBlock v:margins="rect(4,4,4,4)" v:tabSpace="42.5197"/>
			<v:textRect cx="70.8661" cy="1642.11" width="141.74" height="11.3386"/>
			<rect x="0" y="1636.44" width="141.732" height="11.3386" class="st1"/>
			<text x="4" y="1645.71" class="st2" v:langID="2057"><v:paragraph/><v:tabList/>readyToSendHandler</text>		</g>
		<g id="shape77-265" v:mID="77" v:groupContext="shape" transform="translate(581.953,-1185.73)">
			<title>Sheet.77</title>
			<rect x="0" y="1636.44" width="17.0079" height="11.3386" class="st1"/>
		</g>
		<g id="shape78-267" v:mID="78" v:groupContext="shape" transform="translate(445.89,-1174.39)">
			<title>Sheet.78</title>
			<desc>numOutputs : unsigned</desc>
			<v:textBlock v:margins="rect(4,4,4,4)" v:tabSpace="42.5197"/>
			<v:textRect cx="70.8661" cy="1642.11" width="141.74" height="11.3386"/>
			<rect x="0" y="1636.44" width="141.732" height="11.3386" class="st1"/>
			<text x="4" y="1645.71" class="st2" v:langID="2057"><v:paragraph/><v:tabList/>numOutputs : unsigned</text>		</g>
		<g id="shape79-270" v:mID="79" v:groupContext="shape" transform="translate(581.953,-1174.39)">
			<title>Sheet.79</title>
			<desc>?</desc>
			<v:textBlock v:margins="rect(4,4,4,4)" v:tabSpace="42.5197"/>
			<v:textRect cx="8.50394" cy="1642.11" width="17.01" height="11.3386"/>
			<rect x="0" y="1636.44" width="17.0079" height="11.3386" class="st1"/>
			<text x="5.72" y="1645.71" class="st2" v:langID="2057"><v:paragraph v:horizAlign="1"/><v:tabList/>?</text>		</g>
		<g id="shape80-273" v:mID="80" v:groupContext="shape" transform="translate(445.89,-1163.06)">
			<title>Sheet.80</title>
			<desc>outputPorts</desc>
			<v:textBlock v:margins="rect(4,4,4,4)" v:tabSpace="42.5197"/>
			<v:textRect cx="70.8661" cy="1642.11" width="141.74" height="11.3386"/>
			<rect x="0" y="1636.44" width="141.732" height="11.3386" class="st1"/>
			<text x="4" y="1645.71" class="st2" v:langID="2057"><v:paragraph/><v:tabList/>outputPorts</text>		</g>
		<g id="shape81-276" v:mID="81" v:groupContext="shape" transform="translate(581.953,-1163.06)">
			<title>Sheet.81</title>
			<rect x="0" y="1636.44" width="17.0079" height="11.3386" class="st1"/>
		</g>
		<g id="shape82-278" v:mID="82" v:groupContext="shape" transform="translate(445.89,-1151.72)">
			<title>Sheet.82</title>
			<desc>numInputs : unsigned</desc>
			<v:textBlock v:margins="rect(4,4,4,4)" v:tabSpace="42.5197"/>
			<v:textRect cx="70.8661" cy="1642.11" width="141.74" height="11.3386"/>
			<rect x="0" y="1636.44" width="141.732" height="11.3386" class="st1"/>
			<text x="4" y="1645.71" class="st2" v:langID="2057"><v:paragraph/><v:tabList/>numInputs : unsigned</text>		</g>
		<g id="shape83-281" v:mID="83" v:groupContext="shape" transform="translate(581.953,-1151.72)">
			<title>Sheet.83</title>
			<desc>?</desc>
			<v:textBlock v:margins="rect(4,4,4,4)" v:tabSpace="42.5197"/>
			<v:textRect cx="8.50394" cy="1642.11" width="17.01" height="11.3386"/>
			<rect x="0" y="1636.44" width="17.0079" height="11.3386" class="st1"/>
			<text x="5.72" y="1645.71" class="st2" v:langID="2057"><v:paragraph v:horizAlign="1"/><v:tabList/>?</text>		</g>
		<g id="shape84-284" v:mID="84" v:groupContext="shape" transform="translate(445.89,-1140.38)">
			<title>Sheet.84</title>
			<desc>inputPorts</desc>
			<v:textBlock v:margins="rect(4,4,4,4)" v:tabSpace="42.5197"/>
			<v:textRect cx="70.8661" cy="1642.11" width="141.74" height="11.3386"/>
			<rect x="0" y="1636.44" width="141.732" height="11.3386" class="st1"/>
			<text x="4" y="1645.71" class="st2" v:langID="2057"><v:paragraph/><v:tabList/>inputPorts</text>		</g>
		<g id="shape85-287" v:mID="85" v:groupContext="shape" transform="translate(581.953,-1140.38)">
			<title>Sheet.85</title>
			<rect x="0" y="1636.44" width="17.0079" height="11.3386" class="st1"/>
		</g>
		<g id="shape86-289" v:mID="86" v:groupContext="shape" transform="translate(445.89,-1129.04)">
			<title>Sheet.86</title>
			<desc>computeHandler</desc>
			<v:textBlock v:margins="rect(4,4,4,4)" v:tabSpace="42.5197"/>
			<v:textRect cx="70.8661" cy="1642.11" width="141.74" height="11.3386"/>
			<rect x="0" y="1636.44" width="141.732" height="11.3386" class="st1"/>
			<text x="4" y="1645.71" class="st2" v:langID="2057"><v:paragraph/><v:tabList/>computeHandler</text>		</g>
		<g id="shape87-292" v:mID="87" v:groupContext="shape" transform="translate(581.953,-1129.04)">
			<title>Sheet.87</title>
			<rect x="0" y="1636.44" width="17.0079" height="11.3386" class="st1"/>
		</g>
		<g id="shape90-294" v:mID="90" v:groupContext="shape" transform="translate(224.787,-1151.72)">
			<title>Sheet.90</title>
			<desc>ThreadContext</desc>
			<v:textBlock v:margins="rect(4,4,4,4)" v:tabSpace="42.5197" v:verticalAlign="0"/>
			<v:textRect cx="82.2047" cy="1610.93" width="164.41" height="73.7008"/>
			<rect x="0" y="1574.08" width="164.409" height="73.7008" class="st1"/>
			<text x="4" y="1588.88" class="st2" v:langID="2057"><v:paragraph/><v:tabList/>ThreadContext</text>		</g>
		<g id="shape91-297" v:mID="91" v:groupContext="shape" transform="translate(230.457,-1180.06)">
			<title>Sheet.91</title>
			<desc>numVTables : unsigned</desc>
			<v:textBlock v:margins="rect(4,4,4,4)" v:tabSpace="42.5197"/>
			<v:textRect cx="70.8661" cy="1642.11" width="141.74" height="11.3386"/>
			<rect x="0" y="1636.44" width="141.732" height="11.3386" class="st1"/>
			<text x="4" y="1645.71" class="st2" v:langID="2057"><v:paragraph/><v:tabList/>numVTables : unsigned</text>		</g>
		<g id="shape92-300" v:mID="92" v:groupContext="shape" transform="translate(366.52,-1180.06)">
			<title>Sheet.92</title>
			<desc>2</desc>
			<v:textBlock v:margins="rect(4,4,4,4)" v:tabSpace="42.5197"/>
			<v:textRect cx="8.50394" cy="1642.11" width="17.01" height="11.3386"/>
			<rect x="0" y="1636.44" width="17.0079" height="11.3386" class="st1"/>
			<text x="5.46" y="1645.71" class="st2" v:langID="2057"><v:paragraph v:horizAlign="1"/><v:tabList/>2</text>		</g>
		<g id="shape93-303" v:mID="93" v:groupContext="shape" transform="translate(230.457,-1168.72)">
			<title>Sheet.93</title>
			<desc>vtables</desc>
			<v:textBlock v:margins="rect(4,4,4,4)" v:tabSpace="42.5197"/>
			<v:textRect cx="70.8661" cy="1642.11" width="141.74" height="11.3386"/>
			<rect x="0" y="1636.44" width="141.732" height="11.3386" class="st1"/>
			<text x="4" y="1645.71" class="st2" v:langID="2057"><v:paragraph/><v:tabList/>vtables</text>		</g>
		<g id="shape94-306" v:mID="94" v:groupContext="shape" transform="translate(366.52,-1168.72)">
			<title>Sheet.94</title>
			<rect x="0" y="1636.44" width="17.0079" height="11.3386" class="st1"/>
		</g>
		<g id="shape95-308" v:mID="95" v:groupContext="shape" transform="translate(230.457,-1191.4)">
			<title>Sheet.95</title>
			<desc>...</desc>
			<v:textBlock v:margins="rect(4,4,4,4)" v:tabSpace="42.5197"/>
			<v:textRect cx="70.8661" cy="1642.11" width="141.74" height="11.3386"/>
			<rect x="0" y="1636.44" width="141.732" height="11.3386" class="st1"/>
			<text x="4" y="1645.71" class="st2" v:langID="2057"><v:paragraph/><v:tabList/>...</text>		</g>
		<g id="shape96-311" v:mID="96" v:groupContext="shape" transform="translate(366.52,-1191.4)">
			<title>Sheet.96</title>
			<rect x="0" y="1636.44" width="17.0079" height="11.3386" class="st1"/>
		</g>
		<g id="shape97-313" v:mID="97" v:groupContext="shape" transform="translate(230.457,-1157.39)">
			<title>Sheet.97</title>
			<desc>...</desc>
			<v:textBlock v:margins="rect(4,4,4,4)" v:tabSpace="42.5197"/>
			<v:textRect cx="70.8661" cy="1642.11" width="141.74" height="11.3386"/>
			<rect x="0" y="1636.44" width="141.732" height="11.3386" class="st1"/>
			<text x="4" y="1645.71" class="st2" v:langID="2057"><v:paragraph/><v:tabList/>...</text>		</g>
		<g id="shape98-316" v:mID="98" v:groupContext="shape" transform="translate(366.52,-1157.39)">
			<title>Sheet.98</title>
			<rect x="0" y="1636.44" width="17.0079" height="11.3386" class="st1"/>
		</g>
		<g id="shape106-318" v:mID="106" v:groupContext="shape" transform="translate(-1034.65,-402.516) rotate(-58.815)">
			<title>Sheet.106</title>
			<path d="M1.97 1647.08 L2.31 1646.95 A90.0748 28.2254 2.9 0 1 119.58 1646.14 L119.93 1646.23" class="st3"/>
		</g>
	</g>
</svg>
